<svg width="24" height="24" viewBox="0 0 24 24" fill="none" xmlns="http://www.w3.org/2000/svg">
<path fill-rule="evenodd" clip-rule="evenodd" d="M17 15.4999C17.1978 15.4999 17.391 15.4412 17.5555 15.3313C17.7199 15.2214 17.848 15.0652 17.9237 14.8825C17.9993 14.6998 18.0192 14.4988 17.9806 14.3049C17.942 14.1109 17.8468 13.9327 17.707 13.7929L12.707 8.79289C12.5195 8.60542 12.2652 8.50011 12 8.50011C11.7348 8.50011 11.4805 8.60542 11.293 8.79289L6.293 13.7929C6.15319 13.9327 6.05798 14.1109 6.01942 14.3049C5.98085 14.4988 6.00065 14.6998 6.07632 14.8825C6.15199 15.0652 6.28013 15.2214 6.44454 15.3313C6.60895 15.4412 6.80225 15.4999 7 15.4999H17Z" fill="#1F1F1F"/>
</svg>
