<svg width="17" height="17" viewBox="0 0 17 17" fill="none" xmlns="http://www.w3.org/2000/svg">
<path d="M9.53136 7.46808C9.0022 6.93896 8.28991 6.63347 7.54183 6.61479C6.79374 6.59612 6.0671 6.86569 5.5122 7.36775L5.40661 7.46808L3.75695 9.11833C3.21968 9.65656 2.91387 10.3833 2.90471 11.1438C2.89556 11.9042 3.18377 12.6381 3.70792 13.1892C4.23207 13.7402 4.95071 14.0647 5.71065 14.0935C6.47059 14.1223 7.21174 13.8531 7.77611 13.3434L7.88111 13.2431L9.11895 12.0053C9.22357 11.9003 9.28431 11.7594 9.28883 11.6113C9.29335 11.4631 9.24132 11.3188 9.1433 11.2077C9.04528 11.0965 8.90862 11.0268 8.76109 11.0128C8.61355 10.9987 8.46619 11.0413 8.34895 11.132L8.29411 11.1804L7.05628 12.4182C6.7354 12.741 6.30142 12.926 5.84638 12.9341C5.39133 12.9422 4.95104 12.7727 4.61889 12.4616C4.28674 12.1505 4.08886 11.7222 4.06723 11.2676C4.0456 10.813 4.20192 10.3678 4.50303 10.0266L4.58178 9.94317L6.23145 8.2935C6.39395 8.13097 6.58688 8.00204 6.79922 7.91407C7.01156 7.82611 7.23915 7.78083 7.46899 7.78083C7.69883 7.78083 7.92641 7.82611 8.13875 7.91407C8.35109 8.00204 8.54402 8.13097 8.70653 8.2935C8.81599 8.40288 8.96441 8.4643 9.11915 8.46424C9.27389 8.46419 9.42227 8.40267 9.53165 8.29321C9.64103 8.18375 9.70245 8.03533 9.7024 7.88059C9.70234 7.72585 9.64082 7.57746 9.53136 7.46808ZM13.2437 3.75575C12.7145 3.22663 12.0022 2.92113 11.2542 2.90246C10.5061 2.88378 9.77943 3.15336 9.22453 3.65542L9.11895 3.75575L7.8817 4.99417C7.77708 5.09914 7.71634 5.24 7.71181 5.38814C7.70729 5.53628 7.75932 5.68058 7.85734 5.79175C7.95536 5.90291 8.09202 5.9726 8.23956 5.98665C8.38709 6.0007 8.53445 5.95807 8.6517 5.86742L8.70653 5.819L9.94378 4.58175C10.2652 4.26241 10.698 4.08019 11.151 4.07342C11.6041 4.06665 12.0421 4.23586 12.3729 4.54546C12.7037 4.85506 12.9016 5.2809 12.9249 5.7334C12.9481 6.1859 12.795 6.62979 12.4976 6.97167L12.4189 7.05567L10.7686 8.70592C10.4404 9.03399 9.9954 9.21829 9.53136 9.21829C9.06733 9.21829 8.62229 9.03399 8.29411 8.70592C8.23995 8.65172 8.17565 8.60872 8.10487 8.57937C8.0341 8.55003 7.95823 8.53491 7.88161 8.53488C7.80499 8.53486 7.72912 8.54992 7.65832 8.57922C7.58752 8.60851 7.52319 8.65147 7.46899 8.70563C7.41479 8.75978 7.37179 8.82409 7.34244 8.89487C7.3131 8.96564 7.29798 9.04151 7.29795 9.11813C7.29793 9.19475 7.31299 9.27062 7.34229 9.34142C7.37158 9.41222 7.41454 9.47655 7.4687 9.53075C7.99786 10.0599 8.71015 10.3654 9.45823 10.384C10.2063 10.4027 10.933 10.1331 11.4879 9.63108L11.594 9.53075L13.2437 7.8805C13.7905 7.33354 14.0977 6.59181 14.0977 5.81842C14.0977 5.04502 13.7905 4.30271 13.2437 3.75575Z" fill="#1F1F1F"/>
</svg>
