<svg width="84" height="28" viewBox="0 0 84 28" fill="none" xmlns="http://www.w3.org/2000/svg">
<path d="M5.06 4.97H6.79V5.66H5.06V4.97ZM3.37 2.59H4.02V4.31C4.02 6.2 3.23 8.03 1.91 8.84L1.39 8.21C2.63 7.48 3.37 5.86 3.37 4.31V2.59ZM3.53 2.59H4.17V4.28C4.17 5.73 4.85 7.27 6.04 7.99L5.56 8.64C4.26 7.84 3.53 6.04 3.53 4.28V2.59ZM8.38 1.74H9.18V10.78H8.38V1.74ZM6.55 1.93H7.33V10.33H6.55V1.93ZM12.8892 2.21H13.5792V3.13C13.5792 4.87 12.5992 6.31 11.0892 6.9L10.6492 6.23C12.0092 5.73 12.8892 4.51 12.8892 3.13V2.21ZM13.0392 2.21H13.7192V3.19C13.7192 4.41 14.6192 5.54 15.9192 5.99L15.4792 6.64C14.0292 6.1 13.0392 4.76 13.0392 3.19V2.21ZM16.8792 1.74H17.7092V7.22H16.8792V1.74ZM17.4792 4.07H19.0492V4.77H17.4792V4.07ZM14.8292 7.47C16.6792 7.47 17.7992 8.08 17.7992 9.12C17.7992 10.16 16.6792 10.76 14.8292 10.76C12.9792 10.76 11.8592 10.16 11.8592 9.12C11.8592 8.08 12.9792 7.47 14.8292 7.47ZM14.8292 8.13C13.4892 8.13 12.6692 8.49 12.6692 9.12C12.6692 9.75 13.4892 10.11 14.8292 10.11C16.1692 10.11 16.9892 9.75 16.9892 9.12C16.9892 8.49 16.1692 8.13 14.8292 8.13ZM22.8284 2.39C24.2384 2.39 25.2484 3.26 25.2484 4.52C25.2484 5.79 24.2384 6.66 22.8284 6.66C21.4184 6.66 20.3984 5.79 20.3984 4.52C20.3984 3.26 21.4184 2.39 22.8284 2.39ZM22.8284 3.11C21.8884 3.11 21.2084 3.68 21.2084 4.52C21.2084 5.36 21.8884 5.94 22.8284 5.94C23.7584 5.94 24.4384 5.36 24.4384 4.52C24.4384 3.68 23.7584 3.11 22.8284 3.11ZM26.4284 1.73H27.2584V10.79H26.4284V1.73ZM20.0584 8.81L19.9384 8.12C21.5884 8.12 23.8684 8.11 25.8384 7.8L25.9084 8.41C23.8784 8.8 21.6684 8.81 20.0584 8.81ZM31.9102 8.94H40.1002V9.63H31.9102V8.94ZM35.5702 6.6H36.4002V9.13H35.5702V6.6ZM32.8602 2.49H39.1002V6.75H32.8602V2.49ZM38.3002 3.16H33.6702V6.08H38.3002V3.16ZM41.1094 6.3H49.2794V6.98H41.1094V6.3ZM42.1394 4.63H48.3394V5.32H42.1394V4.63ZM42.1394 2.13H48.2594V2.8H42.9694V4.86H42.1394V2.13ZM42.1494 9.89H48.4194V10.58H42.1494V9.89ZM42.1494 7.93H42.9794V10.07H42.1494V7.93ZM53.1211 8.92H61.3111V9.61H53.1211V8.92ZM56.7611 6.73H57.5811V9.15H56.7611V6.73ZM56.7411 2.34H57.4611V3.04C57.4611 4.97 55.6111 6.46 53.7911 6.84L53.4411 6.15C55.0311 5.86 56.7411 4.53 56.7411 3.04V2.34ZM56.8911 2.34H57.6111V3.04C57.6111 4.54 59.3311 5.86 60.9211 6.15L60.5611 6.84C58.7411 6.46 56.8911 4.97 56.8911 3.04V2.34ZM64.6703 2.17H65.3603V3.05C65.3603 4.76 64.3403 6.23 62.8103 6.81L62.3903 6.15C63.7603 5.65 64.6703 4.4 64.6703 3.05V2.17ZM64.8203 2.17H65.5003V3.05C65.5003 4.35 66.4303 5.52 67.7703 5.99L67.3503 6.64C65.8403 6.09 64.8203 4.71 64.8203 3.05V2.17ZM63.6903 7.64H69.7303V10.78H68.8903V8.32H63.6903V7.64ZM68.8903 1.74H69.7303V7.18H68.8903V1.74Z" fill="#CCCCCC"/>
<path d="M8.536 24L6.568 17.448L4.708 24H3.664L1.996 16.848C1.956 16.664 1.924 16.536 1.9 16.464C1.876 16.384 1.84 16.332 1.792 16.308C1.752 16.284 1.688 16.268 1.6 16.26L0.94 16.176V15.84H4.264V16.176L3.604 16.26C3.476 16.276 3.408 16.308 3.4 16.356C3.392 16.404 3.416 16.568 3.472 16.848L4.72 22.44L6.556 15.84H7.552L9.508 22.32L10.78 16.848C10.844 16.568 10.868 16.404 10.852 16.356C10.836 16.308 10.768 16.276 10.648 16.26L9.988 16.176V15.84H12.316V16.176L11.656 16.26C11.568 16.268 11.504 16.284 11.464 16.308C11.424 16.332 11.388 16.384 11.356 16.464C11.332 16.536 11.3 16.664 11.26 16.848L9.592 24H8.536ZM19.3233 19.536V20.292C19.3233 21.524 19.0473 22.472 18.4953 23.136C17.9513 23.792 17.1433 24.12 16.0713 24.12C14.9993 24.12 14.1873 23.792 13.6353 23.136C13.0913 22.472 12.8193 21.524 12.8193 20.292V19.536C12.8193 18.304 13.0913 17.36 13.6353 16.704C14.1873 16.048 14.9993 15.72 16.0713 15.72C17.1433 15.72 17.9513 16.048 18.4953 16.704C19.0473 17.36 19.3233 18.304 19.3233 19.536ZM17.7873 18.936C17.7873 18.232 17.7273 17.68 17.6073 17.28C17.4873 16.872 17.2993 16.58 17.0433 16.404C16.7953 16.228 16.4713 16.14 16.0713 16.14C15.6793 16.14 15.3553 16.228 15.0993 16.404C14.8433 16.58 14.6553 16.872 14.5353 17.28C14.4153 17.68 14.3553 18.232 14.3553 18.936V20.892C14.3553 21.588 14.4153 22.14 14.5353 22.548C14.6553 22.956 14.8433 23.252 15.0993 23.436C15.3553 23.612 15.6793 23.7 16.0713 23.7C16.4713 23.7 16.7953 23.612 17.0433 23.436C17.2993 23.252 17.4873 22.956 17.6073 22.548C17.7273 22.14 17.7873 21.588 17.7873 20.892V18.936ZM20.6293 16.176V15.84H24.2533C25.0933 15.84 25.7413 16.028 26.1973 16.404C26.6533 16.78 26.8813 17.284 26.8813 17.916V18.192C26.8813 18.672 26.7493 19.08 26.4853 19.416C26.2213 19.752 25.8413 19.992 25.3453 20.136L26.8453 22.992C26.9413 23.168 27.0133 23.296 27.0613 23.376C27.1093 23.456 27.1533 23.508 27.1933 23.532C27.2413 23.548 27.3053 23.564 27.3853 23.58L27.9253 23.664V24H25.6813L23.8693 20.28H22.9933V22.992C22.9933 23.264 23.0053 23.428 23.0293 23.484C23.0533 23.532 23.1293 23.564 23.2573 23.58L23.9173 23.664V24H20.6293V23.664L21.2893 23.58C21.4173 23.564 21.4933 23.532 21.5173 23.484C21.5413 23.428 21.5533 23.264 21.5533 22.992V16.848C21.5533 16.576 21.5413 16.416 21.5173 16.368C21.4933 16.312 21.4173 16.276 21.2893 16.26L20.6293 16.176ZM24.2533 16.26H22.9933V19.86H24.2533C24.6053 19.86 24.8733 19.752 25.0573 19.536C25.2493 19.312 25.3453 18.904 25.3453 18.312V17.796C25.3453 17.204 25.2493 16.8 25.0573 16.584C24.8733 16.368 24.6053 16.26 24.2533 16.26ZM33.8097 21.936H34.1457V24H28.4457V23.664L29.1057 23.58C29.2337 23.564 29.3097 23.532 29.3337 23.484C29.3577 23.428 29.3697 23.264 29.3697 22.992V16.848C29.3697 16.576 29.3577 16.416 29.3337 16.368C29.3097 16.312 29.2337 16.276 29.1057 16.26L28.4457 16.176V15.84H31.7337V16.176L31.0737 16.26C30.9457 16.276 30.8697 16.312 30.8457 16.368C30.8217 16.416 30.8097 16.576 30.8097 16.848V23.58H32.7777C32.9697 23.58 33.1057 23.576 33.1857 23.568C33.2657 23.552 33.3177 23.524 33.3417 23.484C33.3737 23.436 33.4017 23.364 33.4257 23.268L33.8097 21.936ZM34.8324 16.176V15.84H38.3724C39.3964 15.84 40.1804 16.14 40.7244 16.74C41.2764 17.34 41.5524 18.272 41.5524 19.536V20.292C41.5524 21.556 41.2764 22.492 40.7244 23.1C40.1804 23.7 39.3964 24 38.3724 24H34.8324V23.664L35.4924 23.58C35.6204 23.564 35.6964 23.532 35.7204 23.484C35.7444 23.428 35.7564 23.264 35.7564 22.992V16.848C35.7564 16.576 35.7444 16.416 35.7204 16.368C35.6964 16.312 35.6204 16.276 35.4924 16.26L34.8324 16.176ZM38.3124 16.26H37.1964V23.58H38.3124C38.7204 23.58 39.0484 23.512 39.2964 23.376C39.5444 23.232 39.7244 22.968 39.8364 22.584C39.9564 22.192 40.0164 21.628 40.0164 20.892V18.936C40.0164 18.2 39.9564 17.64 39.8364 17.256C39.7244 16.872 39.5444 16.612 39.2964 16.476C39.0484 16.332 38.7204 16.26 38.3124 16.26ZM50.6073 16.176V15.84H52.9353V16.176L52.2753 16.26C52.1473 16.276 52.0713 16.312 52.0473 16.368C52.0233 16.416 52.0113 16.576 52.0113 16.848V24H51.3513L46.9473 16.884V22.992C46.9473 23.264 46.9593 23.428 46.9833 23.484C47.0073 23.532 47.0833 23.564 47.2113 23.58L47.8713 23.664V24H45.5433V23.664L46.2033 23.58C46.3313 23.564 46.4073 23.532 46.4313 23.484C46.4553 23.428 46.4673 23.264 46.4673 22.992V16.848C46.4673 16.576 46.4553 16.416 46.4313 16.368C46.4073 16.312 46.3313 16.276 46.2033 16.26L45.5433 16.176V15.84H47.9553L51.5313 21.588V16.848C51.5313 16.576 51.5193 16.416 51.4953 16.368C51.4713 16.312 51.3953 16.276 51.2673 16.26L50.6073 16.176ZM59.3856 21.936H59.7216V24H53.7816V23.664L54.4416 23.58C54.5696 23.564 54.6456 23.532 54.6696 23.484C54.6936 23.428 54.7056 23.264 54.7056 22.992V16.848C54.7056 16.576 54.6936 16.416 54.6696 16.368C54.6456 16.312 54.5696 16.276 54.4416 16.26L53.7816 16.176V15.84H59.6016V17.904H59.2656L58.8816 16.572C58.8576 16.476 58.8296 16.408 58.7976 16.368C58.7736 16.32 58.7216 16.292 58.6416 16.284C58.5616 16.268 58.4256 16.26 58.2336 16.26H56.1456V19.668H57.5136C57.7056 19.668 57.8416 19.664 57.9216 19.656C58.0016 19.64 58.0536 19.612 58.0776 19.572C58.1096 19.524 58.1376 19.452 58.1616 19.356L58.4256 18.384H58.7616V21.372H58.4256L58.1616 20.4C58.1376 20.304 58.1096 20.236 58.0776 20.196C58.0536 20.148 58.0016 20.12 57.9216 20.112C57.8416 20.096 57.7056 20.088 57.5136 20.088H56.1456V23.58H58.3536C58.5456 23.58 58.6816 23.576 58.7616 23.568C58.8416 23.552 58.8936 23.524 58.9176 23.484C58.9496 23.436 58.9776 23.364 59.0016 23.268L59.3856 21.936ZM68.0321 24L66.0641 17.448L64.2041 24H63.1601L61.4921 16.848C61.4521 16.664 61.4201 16.536 61.3961 16.464C61.3721 16.384 61.3361 16.332 61.2881 16.308C61.2481 16.284 61.1841 16.268 61.0961 16.26L60.4361 16.176V15.84H63.7601V16.176L63.1001 16.26C62.9721 16.276 62.9041 16.308 62.8961 16.356C62.8881 16.404 62.9121 16.568 62.9681 16.848L64.2161 22.44L66.0521 15.84H67.0481L69.0041 22.32L70.2761 16.848C70.3401 16.568 70.3641 16.404 70.3481 16.356C70.3321 16.308 70.2641 16.276 70.1441 16.26L69.4841 16.176V15.84H71.8121V16.176L71.1521 16.26C71.0641 16.268 71.0001 16.284 70.9601 16.308C70.9201 16.332 70.8841 16.384 70.8521 16.464C70.8281 16.536 70.7961 16.664 70.7561 16.848L69.0881 24H68.0321ZM75.0578 23.7C75.5378 23.7 75.9338 23.588 76.2458 23.364C76.5658 23.132 76.7258 22.772 76.7258 22.284C76.7258 21.924 76.6178 21.624 76.4018 21.384C76.1938 21.144 75.8178 20.944 75.2738 20.784L74.1578 20.448C73.5978 20.28 73.1658 19.992 72.8618 19.584C72.5658 19.168 72.4178 18.652 72.4178 18.036C72.4178 17.628 72.5098 17.248 72.6938 16.896C72.8858 16.544 73.1738 16.26 73.5578 16.044C73.9498 15.828 74.4418 15.72 75.0338 15.72C75.6818 15.72 76.2058 15.84 76.6058 16.08C77.0058 16.312 77.2858 16.616 77.4458 16.992C77.6058 17.368 77.6458 17.772 77.5658 18.204L76.1858 18.456C76.3138 17.712 76.2578 17.14 76.0178 16.74C75.7858 16.34 75.4058 16.14 74.8778 16.14C74.4698 16.14 74.1418 16.26 73.8938 16.5C73.6538 16.74 73.5338 17.084 73.5338 17.532C73.5338 17.9 73.6378 18.224 73.8458 18.504C74.0618 18.784 74.4138 19 74.9018 19.152L76.0178 19.488C76.6258 19.664 77.0818 19.932 77.3858 20.292C77.6898 20.644 77.8418 21.136 77.8418 21.768C77.8418 22.216 77.7378 22.62 77.5298 22.98C77.3298 23.332 77.0218 23.612 76.6058 23.82C76.1978 24.02 75.6858 24.12 75.0698 24.12C74.6218 24.12 74.1978 24.056 73.7978 23.928C73.3978 23.792 73.0618 23.572 72.7898 23.268C72.5258 22.964 72.3578 22.552 72.2858 22.032L73.0898 21.744C73.1298 22.256 73.2418 22.656 73.4258 22.944C73.6178 23.224 73.8538 23.42 74.1338 23.532C74.4218 23.644 74.7298 23.7 75.0578 23.7Z" fill="#1F1F1F"/>
</svg>
