<svg width="91" height="11" viewBox="0 0 91 11" fill="none" xmlns="http://www.w3.org/2000/svg">
<path d="M9.792 10L7.496 2.356L5.326 10H4.108L2.162 1.656C2.11533 1.44133 2.078 1.292 2.05 1.208C2.022 1.11467 1.98 1.054 1.924 1.026C1.87733 0.997999 1.80267 0.979333 1.7 0.969999L0.93 0.872V0.48H4.808V0.872L4.038 0.969999C3.88867 0.988666 3.80933 1.026 3.8 1.082C3.79067 1.138 3.81867 1.32933 3.884 1.656L5.34 8.18L7.482 0.48H8.644L10.926 8.04L12.41 1.656C12.4847 1.32933 12.5127 1.138 12.494 1.082C12.4753 1.026 12.396 0.988666 12.256 0.969999L11.486 0.872V0.48H14.202V0.872L13.432 0.969999C13.3293 0.979333 13.2547 0.997999 13.208 1.026C13.1613 1.054 13.1193 1.11467 13.082 1.208C13.054 1.292 13.0167 1.44133 12.97 1.656L11.024 10H9.792ZM22.3772 4.792V5.674C22.3772 7.11133 22.0552 8.21733 21.4112 8.992C20.7766 9.75733 19.8339 10.14 18.5832 10.14C17.3326 10.14 16.3852 9.75733 15.7412 8.992C15.1066 8.21733 14.7892 7.11133 14.7892 5.674V4.792C14.7892 3.35467 15.1066 2.25333 15.7412 1.488C16.3852 0.722666 17.3326 0.339999 18.5832 0.339999C19.8339 0.339999 20.7766 0.722666 21.4112 1.488C22.0552 2.25333 22.3772 3.35467 22.3772 4.792ZM20.5852 4.092C20.5852 3.27067 20.5152 2.62667 20.3752 2.16C20.2352 1.684 20.0159 1.34333 19.7172 1.138C19.4279 0.932666 19.0499 0.83 18.5832 0.83C18.1259 0.83 17.7479 0.932666 17.4492 1.138C17.1506 1.34333 16.9312 1.684 16.7912 2.16C16.6512 2.62667 16.5812 3.27067 16.5812 4.092V6.374C16.5812 7.186 16.6512 7.83 16.7912 8.306C16.9312 8.782 17.1506 9.12733 17.4492 9.342C17.7479 9.54733 18.1259 9.65 18.5832 9.65C19.0499 9.65 19.4279 9.54733 19.7172 9.342C20.0159 9.12733 20.2352 8.782 20.3752 8.306C20.5152 7.83 20.5852 7.186 20.5852 6.374V4.092ZM23.9008 0.872V0.48H28.1288C29.1088 0.48 29.8648 0.699333 30.3968 1.138C30.9288 1.57667 31.1948 2.16467 31.1948 2.902V3.224C31.1948 3.784 31.0408 4.26 30.7328 4.652C30.4248 5.044 29.9815 5.324 29.4028 5.492L31.1528 8.824C31.2648 9.02933 31.3488 9.17867 31.4048 9.272C31.4608 9.36533 31.5122 9.426 31.5588 9.454C31.6148 9.47267 31.6895 9.49133 31.7828 9.51L32.4128 9.608V10H29.7948L27.6808 5.66H26.6588V8.824C26.6588 9.14133 26.6728 9.33267 26.7008 9.398C26.7288 9.454 26.8175 9.49133 26.9668 9.51L27.7368 9.608V10H23.9008V9.608L24.6708 9.51C24.8202 9.49133 24.9088 9.454 24.9368 9.398C24.9648 9.33267 24.9788 9.14133 24.9788 8.824V1.656C24.9788 1.33867 24.9648 1.152 24.9368 1.096C24.9088 1.03067 24.8202 0.988666 24.6708 0.969999L23.9008 0.872ZM28.1288 0.969999H26.6588V5.17H28.1288C28.5395 5.17 28.8522 5.044 29.0668 4.792C29.2908 4.53067 29.4028 4.05467 29.4028 3.364V2.762C29.4028 2.07133 29.2908 1.6 29.0668 1.348C28.8522 1.096 28.5395 0.969999 28.1288 0.969999ZM39.278 7.592H39.67V10H33.02V9.608L33.79 9.51C33.9393 9.49133 34.028 9.454 34.056 9.398C34.084 9.33267 34.098 9.14133 34.098 8.824V1.656C34.098 1.33867 34.084 1.152 34.056 1.096C34.028 1.03067 33.9393 0.988666 33.79 0.969999L33.02 0.872V0.48H36.856V0.872L36.086 0.969999C35.9366 0.988666 35.848 1.03067 35.82 1.096C35.792 1.152 35.778 1.33867 35.778 1.656V9.51H38.074C38.298 9.51 38.4566 9.50533 38.55 9.496C38.6433 9.47733 38.704 9.44467 38.732 9.398C38.7693 9.342 38.802 9.258 38.83 9.146L39.278 7.592ZM40.4711 0.872V0.48H44.6011C45.7958 0.48 46.7105 0.83 47.3451 1.53C47.9891 2.23 48.3111 3.31733 48.3111 4.792V5.674C48.3111 7.14867 47.9891 8.24067 47.3451 8.95C46.7105 9.65 45.7958 10 44.6011 10H40.4711V9.608L41.2411 9.51C41.3905 9.49133 41.4791 9.454 41.5071 9.398C41.5351 9.33267 41.5491 9.14133 41.5491 8.824V1.656C41.5491 1.33867 41.5351 1.152 41.5071 1.096C41.4791 1.03067 41.3905 0.988666 41.2411 0.969999L40.4711 0.872ZM44.5311 0.969999H43.2291V9.51H44.5311C45.0071 9.51 45.3898 9.43067 45.6791 9.272C45.9685 9.104 46.1785 8.796 46.3091 8.348C46.4491 7.89067 46.5191 7.23267 46.5191 6.374V4.092C46.5191 3.23333 46.4491 2.58 46.3091 2.132C46.1785 1.684 45.9685 1.38067 45.6791 1.222C45.3898 1.054 45.0071 0.969999 44.5311 0.969999ZM58.8752 0.872V0.48H61.5912V0.872L60.8212 0.969999C60.6719 0.988666 60.5832 1.03067 60.5552 1.096C60.5272 1.152 60.5132 1.33867 60.5132 1.656V10H59.7432L54.6052 1.698V8.824C54.6052 9.14133 54.6192 9.33267 54.6472 9.398C54.6752 9.454 54.7639 9.49133 54.9132 9.51L55.6832 9.608V10H52.9672V9.608L53.7372 9.51C53.8866 9.49133 53.9752 9.454 54.0032 9.398C54.0312 9.33267 54.0452 9.14133 54.0452 8.824V1.656C54.0452 1.33867 54.0312 1.152 54.0032 1.096C53.9752 1.03067 53.8866 0.988666 53.7372 0.969999L52.9672 0.872V0.48H55.7812L59.9532 7.186V1.656C59.9532 1.33867 59.9392 1.152 59.9112 1.096C59.8832 1.03067 59.7946 0.988666 59.6452 0.969999L58.8752 0.872ZM69.1166 7.592H69.5086V10H62.5786V9.608L63.3486 9.51C63.4979 9.49133 63.5866 9.454 63.6146 9.398C63.6426 9.33267 63.6566 9.14133 63.6566 8.824V1.656C63.6566 1.33867 63.6426 1.152 63.6146 1.096C63.5866 1.03067 63.4979 0.988666 63.3486 0.969999L62.5786 0.872V0.48H69.3686V2.888H68.9766L68.5286 1.334C68.5006 1.222 68.4679 1.14267 68.4306 1.096C68.4026 1.04 68.3419 1.00733 68.2486 0.998C68.1552 0.979333 67.9966 0.969999 67.7726 0.969999H65.3366V4.946H66.9326C67.1566 4.946 67.3152 4.94133 67.4086 4.932C67.5019 4.91333 67.5626 4.88067 67.5906 4.834C67.6279 4.778 67.6606 4.694 67.6886 4.582L67.9966 3.448H68.3886V6.934H67.9966L67.6886 5.8C67.6606 5.688 67.6279 5.60867 67.5906 5.562C67.5626 5.506 67.5019 5.47333 67.4086 5.464C67.3152 5.44533 67.1566 5.436 66.9326 5.436H65.3366V9.51H67.9126C68.1366 9.51 68.2952 9.50533 68.3886 9.496C68.4819 9.47733 68.5426 9.44467 68.5706 9.398C68.6079 9.342 68.6406 9.258 68.6686 9.146L69.1166 7.592ZM79.2041 10L76.9081 2.356L74.7381 10H73.5201L71.5741 1.656C71.5274 1.44133 71.4901 1.292 71.4621 1.208C71.4341 1.11467 71.3921 1.054 71.3361 1.026C71.2894 0.997999 71.2148 0.979333 71.1121 0.969999L70.3421 0.872V0.48H74.2201V0.872L73.4501 0.969999C73.3008 0.988666 73.2214 1.026 73.2121 1.082C73.2028 1.138 73.2308 1.32933 73.2961 1.656L74.7521 8.18L76.8941 0.48H78.0561L80.3381 8.04L81.8221 1.656C81.8968 1.32933 81.9248 1.138 81.9061 1.082C81.8874 1.026 81.8081 0.988666 81.6681 0.969999L80.8981 0.872V0.48H83.6141V0.872L82.8441 0.969999C82.7414 0.979333 82.6668 0.997999 82.6201 1.026C82.5734 1.054 82.5314 1.11467 82.4941 1.208C82.4661 1.292 82.4288 1.44133 82.3821 1.656L80.4361 10H79.2041ZM87.4008 9.65C87.9608 9.65 88.4228 9.51933 88.7868 9.258C89.1601 8.98733 89.3468 8.56733 89.3468 7.998C89.3468 7.578 89.2208 7.228 88.9688 6.948C88.7261 6.668 88.2874 6.43467 87.6528 6.248L86.3508 5.856C85.6974 5.66 85.1934 5.324 84.8388 4.848C84.4934 4.36267 84.3208 3.76067 84.3208 3.042C84.3208 2.566 84.4281 2.12267 84.6428 1.712C84.8668 1.30133 85.2028 0.969999 85.6508 0.717999C86.1081 0.465999 86.6821 0.339999 87.3728 0.339999C88.1288 0.339999 88.7401 0.479999 89.2068 0.76C89.6734 1.03067 90.0001 1.38533 90.1868 1.824C90.3734 2.26267 90.4201 2.734 90.3268 3.238L88.7168 3.532C88.8661 2.664 88.8008 1.99667 88.5208 1.53C88.2501 1.06333 87.8068 0.83 87.1908 0.83C86.7148 0.83 86.3321 0.97 86.0428 1.25C85.7628 1.53 85.6228 1.93133 85.6228 2.454C85.6228 2.88333 85.7441 3.26133 85.9868 3.588C86.2388 3.91467 86.6494 4.16667 87.2188 4.344L88.5208 4.736C89.2301 4.94133 89.7621 5.254 90.1168 5.674C90.4714 6.08467 90.6488 6.65867 90.6488 7.396C90.6488 7.91867 90.5274 8.39 90.2848 8.81C90.0514 9.22067 89.6921 9.54733 89.2068 9.79C88.7308 10.0233 88.1334 10.14 87.4148 10.14C86.8921 10.14 86.3974 10.0653 85.9308 9.916C85.4641 9.75733 85.0721 9.50067 84.7548 9.146C84.4468 8.79133 84.2508 8.31067 84.1668 7.704L85.1048 7.368C85.1514 7.96533 85.2821 8.432 85.4968 8.768C85.7208 9.09467 85.9961 9.32333 86.3228 9.454C86.6588 9.58467 87.0181 9.65 87.4008 9.65Z" fill="#CCCCCC"/>
</svg>
