<svg width="206" height="24" viewBox="0 0 206 24" fill="none" xmlns="http://www.w3.org/2000/svg">
<path d="M21.096 23L15.848 5.528L10.888 23H8.104L3.656 3.928C3.54933 3.43733 3.464 3.096 3.4 2.904C3.336 2.69067 3.24 2.552 3.112 2.488C3.00533 2.424 2.83467 2.38133 2.6 2.36L0.84 2.136V1.24H9.704V2.136L7.944 2.36C7.60267 2.40267 7.42133 2.488 7.4 2.616C7.37867 2.744 7.44267 3.18133 7.592 3.928L10.92 18.84L15.816 1.24H18.472L23.688 18.52L27.08 3.928C27.2507 3.18133 27.3147 2.744 27.272 2.616C27.2293 2.488 27.048 2.40267 26.728 2.36L24.968 2.136V1.24H31.176V2.136L29.416 2.36C29.1813 2.38133 29.0107 2.424 28.904 2.488C28.7973 2.552 28.7013 2.69067 28.616 2.904C28.552 3.096 28.4667 3.43733 28.36 3.928L23.912 23H21.096ZM49.8623 11.096V13.112C49.8623 16.3973 49.1263 18.9253 47.6543 20.696C46.2036 22.4453 44.0489 23.32 41.1903 23.32C38.3316 23.32 36.1663 22.4453 34.6943 20.696C33.2436 18.9253 32.5182 16.3973 32.5182 13.112V11.096C32.5182 7.81067 33.2436 5.29333 34.6943 3.544C36.1663 1.79467 38.3316 0.919998 41.1903 0.919998C44.0489 0.919998 46.2036 1.79467 47.6543 3.544C49.1263 5.29333 49.8623 7.81067 49.8623 11.096ZM45.7663 9.496C45.7663 7.61867 45.6063 6.14667 45.2863 5.08C44.9663 3.992 44.4649 3.21333 43.7823 2.744C43.1209 2.27467 42.2569 2.04 41.1903 2.04C40.1449 2.04 39.2809 2.27467 38.5983 2.744C37.9156 3.21333 37.4143 3.992 37.0943 5.08C36.7743 6.14667 36.6143 7.61867 36.6143 9.496V14.712C36.6143 16.568 36.7743 18.04 37.0943 19.128C37.4143 20.216 37.9156 21.0053 38.5983 21.496C39.2809 21.9653 40.1449 22.2 41.1903 22.2C42.2569 22.2 43.1209 21.9653 43.7823 21.496C44.4649 21.0053 44.9663 20.216 45.2863 19.128C45.6063 18.04 45.7663 16.568 45.7663 14.712V9.496ZM53.3448 2.136V1.24H63.0088C65.2488 1.24 66.9768 1.74133 68.1928 2.744C69.4088 3.74667 70.0168 5.09067 70.0168 6.776V7.512C70.0168 8.792 69.6648 9.88 68.9608 10.776C68.2568 11.672 67.2434 12.312 65.9208 12.696L69.9208 20.312C70.1768 20.7813 70.3688 21.1227 70.4968 21.336C70.6248 21.5493 70.7421 21.688 70.8488 21.752C70.9768 21.7947 71.1474 21.8373 71.3608 21.88L72.8008 22.104V23H66.8168L61.9848 13.08H59.6488V20.312C59.6488 21.0373 59.6808 21.4747 59.7448 21.624C59.8088 21.752 60.0114 21.8373 60.3528 21.88L62.1128 22.104V23H53.3448V22.104L55.1048 21.88C55.4461 21.8373 55.6488 21.752 55.7128 21.624C55.7768 21.4747 55.8088 21.0373 55.8088 20.312V3.928C55.8088 3.20267 55.7768 2.776 55.7128 2.648C55.6488 2.49867 55.4461 2.40267 55.1048 2.36L53.3448 2.136ZM63.0088 2.36H59.6488V11.96H63.0088C63.9474 11.96 64.6621 11.672 65.1528 11.096C65.6648 10.4987 65.9208 9.41067 65.9208 7.832V6.456C65.9208 4.87733 65.6648 3.8 65.1528 3.224C64.6621 2.648 63.9474 2.36 63.0088 2.36ZM88.4925 17.496H89.3885V23H74.1885V22.104L75.9485 21.88C76.2898 21.8373 76.4925 21.752 76.5565 21.624C76.6205 21.4747 76.6525 21.0373 76.6525 20.312V3.928C76.6525 3.20267 76.6205 2.776 76.5565 2.648C76.4925 2.49867 76.2898 2.40267 75.9485 2.36L74.1885 2.136V1.24H82.9565V2.136L81.1965 2.36C80.8552 2.40267 80.6525 2.49867 80.5885 2.648C80.5245 2.776 80.4925 3.20267 80.4925 3.928V21.88H85.7405C86.2525 21.88 86.6152 21.8693 86.8285 21.848C87.0418 21.8053 87.1805 21.7307 87.2445 21.624C87.3298 21.496 87.4045 21.304 87.4685 21.048L88.4925 17.496ZM91.2198 2.136V1.24H100.66C103.39 1.24 105.481 2.04 106.932 3.64C108.404 5.24 109.14 7.72533 109.14 11.096V13.112C109.14 16.4827 108.404 18.9787 106.932 20.6C105.481 22.2 103.39 23 100.66 23H91.2198V22.104L92.9798 21.88C93.3211 21.8373 93.5238 21.752 93.5878 21.624C93.6518 21.4747 93.6838 21.0373 93.6838 20.312V3.928C93.6838 3.20267 93.6518 2.776 93.5878 2.648C93.5238 2.49867 93.3211 2.40267 92.9798 2.36L91.2198 2.136ZM100.5 2.36H97.5238V21.88H100.5C101.588 21.88 102.462 21.6987 103.124 21.336C103.785 20.952 104.265 20.248 104.564 19.224C104.884 18.1787 105.044 16.6747 105.044 14.712V9.496C105.044 7.53333 104.884 6.04 104.564 5.016C104.265 3.992 103.785 3.29867 103.124 2.936C102.462 2.552 101.588 2.36 100.5 2.36ZM133.286 2.136V1.24H139.494V2.136L137.734 2.36C137.393 2.40267 137.19 2.49867 137.126 2.648C137.062 2.776 137.03 3.20267 137.03 3.928V23H135.27L123.526 4.024V20.312C123.526 21.0373 123.558 21.4747 123.622 21.624C123.686 21.752 123.889 21.8373 124.23 21.88L125.99 22.104V23H119.782V22.104L121.542 21.88C121.884 21.8373 122.086 21.752 122.15 21.624C122.214 21.4747 122.246 21.0373 122.246 20.312V3.928C122.246 3.20267 122.214 2.776 122.15 2.648C122.086 2.49867 121.884 2.40267 121.542 2.36L119.782 2.136V1.24H126.214L135.75 16.568V3.928C135.75 3.20267 135.718 2.776 135.654 2.648C135.59 2.49867 135.388 2.40267 135.046 2.36L133.286 2.136ZM156.695 17.496H157.591V23H141.751V22.104L143.511 21.88C143.852 21.8373 144.055 21.752 144.119 21.624C144.183 21.4747 144.215 21.0373 144.215 20.312V3.928C144.215 3.20267 144.183 2.776 144.119 2.648C144.055 2.49867 143.852 2.40267 143.511 2.36L141.751 2.136V1.24H157.271V6.744H156.375L155.351 3.192C155.287 2.936 155.212 2.75467 155.127 2.648C155.063 2.52 154.924 2.44533 154.711 2.424C154.498 2.38133 154.135 2.36 153.623 2.36H148.055V11.448H151.703C152.215 11.448 152.578 11.4373 152.791 11.416C153.004 11.3733 153.143 11.2987 153.207 11.192C153.292 11.064 153.367 10.872 153.431 10.616L154.135 8.024H155.031V15.992H154.135L153.431 13.4C153.367 13.144 153.292 12.9627 153.207 12.856C153.143 12.728 153.004 12.6533 152.791 12.632C152.578 12.5893 152.215 12.568 151.703 12.568H148.055V21.88H153.943C154.455 21.88 154.818 21.8693 155.031 21.848C155.244 21.8053 155.383 21.7307 155.447 21.624C155.532 21.496 155.607 21.304 155.671 21.048L156.695 17.496ZM179.752 23L174.504 5.528L169.544 23H166.76L162.312 3.928C162.206 3.43733 162.12 3.096 162.056 2.904C161.992 2.69067 161.896 2.552 161.768 2.488C161.662 2.424 161.491 2.38133 161.256 2.36L159.496 2.136V1.24H168.36V2.136L166.6 2.36C166.259 2.40267 166.078 2.488 166.056 2.616C166.035 2.744 166.099 3.18133 166.248 3.928L169.576 18.84L174.472 1.24H177.128L182.344 18.52L185.736 3.928C185.907 3.18133 185.971 2.744 185.928 2.616C185.886 2.488 185.704 2.40267 185.384 2.36L183.624 2.136V1.24H189.832V2.136L188.072 2.36C187.838 2.38133 187.667 2.424 187.56 2.488C187.454 2.552 187.358 2.69067 187.272 2.904C187.208 3.096 187.123 3.43733 187.016 3.928L182.568 23H179.752ZM198.488 22.2C199.768 22.2 200.824 21.9013 201.656 21.304C202.509 20.6853 202.936 19.7253 202.936 18.424C202.936 17.464 202.648 16.664 202.072 16.024C201.517 15.384 200.514 14.8507 199.064 14.424L196.088 13.528C194.594 13.08 193.442 12.312 192.632 11.224C191.842 10.1147 191.448 8.73867 191.448 7.096C191.448 6.008 191.693 4.99467 192.184 4.056C192.696 3.11733 193.464 2.36 194.488 1.784C195.533 1.208 196.845 0.919998 198.424 0.919998C200.152 0.919998 201.549 1.24 202.616 1.88C203.682 2.49867 204.429 3.30933 204.856 4.312C205.282 5.31467 205.389 6.392 205.176 7.544L201.496 8.216C201.837 6.232 201.688 4.70667 201.048 3.64C200.429 2.57333 199.416 2.04 198.008 2.04C196.92 2.04 196.045 2.36 195.384 3C194.744 3.64 194.424 4.55733 194.424 5.752C194.424 6.73333 194.701 7.59733 195.256 8.344C195.832 9.09067 196.77 9.66667 198.072 10.072L201.048 10.968C202.669 11.4373 203.885 12.152 204.696 13.112C205.506 14.0507 205.912 15.3627 205.912 17.048C205.912 18.2427 205.634 19.32 205.08 20.28C204.546 21.2187 203.725 21.9653 202.616 22.52C201.528 23.0533 200.162 23.32 198.52 23.32C197.325 23.32 196.194 23.1493 195.128 22.808C194.061 22.4453 193.165 21.8587 192.44 21.048C191.736 20.2373 191.288 19.1387 191.096 17.752L193.24 16.984C193.346 18.3493 193.645 19.416 194.136 20.184C194.648 20.9307 195.277 21.4533 196.024 21.752C196.792 22.0507 197.613 22.2 198.488 22.2Z" fill="#1F1F1F"/>
</svg>
