<svg width="155" height="18" viewBox="0 0 155 18" fill="none" xmlns="http://www.w3.org/2000/svg">
<path d="M16.072 17L12.136 3.896L8.416 17H6.328L2.992 2.696C2.912 2.328 2.848 2.072 2.8 1.928C2.752 1.768 2.68 1.664 2.584 1.616C2.504 1.568 2.376 1.536 2.2 1.52L0.88 1.352V0.68H7.528V1.352L6.208 1.52C5.952 1.552 5.816 1.616 5.8 1.712C5.784 1.808 5.832 2.136 5.944 2.696L8.44 13.88L12.112 0.68H14.104L18.016 13.64L20.56 2.696C20.688 2.136 20.736 1.808 20.704 1.712C20.672 1.616 20.536 1.552 20.296 1.52L18.976 1.352V0.68H23.632V1.352L22.312 1.52C22.136 1.536 22.008 1.568 21.928 1.616C21.848 1.664 21.776 1.768 21.712 1.928C21.664 2.072 21.6 2.328 21.52 2.696L18.184 17H16.072ZM37.6467 8.072V9.584C37.6467 12.048 37.0947 13.944 35.9907 15.272C34.9027 16.584 33.2867 17.24 31.1427 17.24C28.9987 17.24 27.3747 16.584 26.2707 15.272C25.1827 13.944 24.6387 12.048 24.6387 9.584V8.072C24.6387 5.608 25.1827 3.72 26.2707 2.408C27.3747 1.096 28.9987 0.439999 31.1427 0.439999C33.2867 0.439999 34.9027 1.096 35.9907 2.408C37.0947 3.72 37.6467 5.608 37.6467 8.072ZM34.5747 6.872C34.5747 5.464 34.4547 4.36 34.2147 3.56C33.9747 2.744 33.5987 2.16 33.0867 1.808C32.5907 1.456 31.9427 1.28 31.1427 1.28C30.3587 1.28 29.7107 1.456 29.1987 1.808C28.6867 2.16 28.3107 2.744 28.0707 3.56C27.8307 4.36 27.7107 5.464 27.7107 6.872V10.784C27.7107 12.176 27.8307 13.28 28.0707 14.096C28.3107 14.912 28.6867 15.504 29.1987 15.872C29.7107 16.224 30.3587 16.4 31.1427 16.4C31.9427 16.4 32.5907 16.224 33.0867 15.872C33.5987 15.504 33.9747 14.912 34.2147 14.096C34.4547 13.28 34.5747 12.176 34.5747 10.784V6.872ZM40.2586 1.352V0.68H47.5066C49.1866 0.68 50.4826 1.056 51.3946 1.808C52.3066 2.56 52.7626 3.568 52.7626 4.832V5.384C52.7626 6.344 52.4986 7.16 51.9706 7.832C51.4426 8.504 50.6826 8.984 49.6906 9.272L52.6906 14.984C52.8826 15.336 53.0266 15.592 53.1226 15.752C53.2186 15.912 53.3066 16.016 53.3866 16.064C53.4826 16.096 53.6106 16.128 53.7706 16.16L54.8506 16.328V17H50.3626L46.7386 9.56H44.9866V14.984C44.9866 15.528 45.0106 15.856 45.0586 15.968C45.1066 16.064 45.2586 16.128 45.5146 16.16L46.8346 16.328V17H40.2586V16.328L41.5786 16.16C41.8346 16.128 41.9866 16.064 42.0346 15.968C42.0826 15.856 42.1066 15.528 42.1066 14.984V2.696C42.1066 2.152 42.0826 1.832 42.0346 1.736C41.9866 1.624 41.8346 1.552 41.5786 1.52L40.2586 1.352ZM47.5066 1.52H44.9866V8.72H47.5066C48.2106 8.72 48.7466 8.504 49.1146 8.072C49.4986 7.624 49.6906 6.808 49.6906 5.624V4.592C49.6906 3.408 49.4986 2.6 49.1146 2.168C48.7466 1.736 48.2106 1.52 47.5066 1.52ZM66.6194 12.872H67.2914V17H55.8914V16.328L57.2114 16.16C57.4674 16.128 57.6194 16.064 57.6674 15.968C57.7154 15.856 57.7394 15.528 57.7394 14.984V2.696C57.7394 2.152 57.7154 1.832 57.6674 1.736C57.6194 1.624 57.4674 1.552 57.2114 1.52L55.8914 1.352V0.68H62.4674V1.352L61.1474 1.52C60.8914 1.552 60.7394 1.624 60.6914 1.736C60.6434 1.832 60.6194 2.152 60.6194 2.696V16.16H64.5554C64.9394 16.16 65.2114 16.152 65.3714 16.136C65.5314 16.104 65.6354 16.048 65.6834 15.968C65.7474 15.872 65.8034 15.728 65.8514 15.536L66.6194 12.872ZM68.6648 1.352V0.68H75.7448C77.7928 0.68 79.3608 1.28 80.4488 2.48C81.5528 3.68 82.1048 5.544 82.1048 8.072V9.584C82.1048 12.112 81.5528 13.984 80.4488 15.2C79.3608 16.4 77.7928 17 75.7448 17H68.6648V16.328L69.9848 16.16C70.2408 16.128 70.3928 16.064 70.4408 15.968C70.4888 15.856 70.5128 15.528 70.5128 14.984V2.696C70.5128 2.152 70.4888 1.832 70.4408 1.736C70.3928 1.624 70.2408 1.552 69.9848 1.52L68.6648 1.352ZM75.6248 1.52H73.3928V16.16H75.6248C76.4408 16.16 77.0968 16.024 77.5928 15.752C78.0888 15.464 78.4488 14.936 78.6728 14.168C78.9128 13.384 79.0328 12.256 79.0328 10.784V6.872C79.0328 5.4 78.9128 4.28 78.6728 3.512C78.4488 2.744 78.0888 2.224 77.5928 1.952C77.0968 1.664 76.4408 1.52 75.6248 1.52ZM100.215 1.352V0.68H104.871V1.352L103.551 1.52C103.295 1.552 103.143 1.624 103.095 1.736C103.047 1.832 103.023 2.152 103.023 2.696V17H101.703L92.8947 2.768V14.984C92.8947 15.528 92.9187 15.856 92.9667 15.968C93.0147 16.064 93.1667 16.128 93.4227 16.16L94.7427 16.328V17H90.0867V16.328L91.4067 16.16C91.6627 16.128 91.8147 16.064 91.8627 15.968C91.9107 15.856 91.9347 15.528 91.9347 14.984V2.696C91.9347 2.152 91.9107 1.832 91.8627 1.736C91.8147 1.624 91.6627 1.552 91.4067 1.52L90.0867 1.352V0.68H94.9107L102.063 12.176V2.696C102.063 2.152 102.039 1.832 101.991 1.736C101.943 1.624 101.791 1.552 101.535 1.52L100.215 1.352ZM117.771 12.872H118.443V17H106.563V16.328L107.883 16.16C108.139 16.128 108.291 16.064 108.339 15.968C108.387 15.856 108.411 15.528 108.411 14.984V2.696C108.411 2.152 108.387 1.832 108.339 1.736C108.291 1.624 108.139 1.552 107.883 1.52L106.563 1.352V0.68H118.203V4.808H117.531L116.763 2.144C116.715 1.952 116.659 1.816 116.595 1.736C116.547 1.64 116.443 1.584 116.283 1.568C116.123 1.536 115.851 1.52 115.467 1.52H111.291V8.336H114.027C114.411 8.336 114.683 8.328 114.843 8.312C115.003 8.28 115.107 8.224 115.155 8.144C115.219 8.048 115.275 7.904 115.323 7.712L115.851 5.768H116.523V11.744H115.851L115.323 9.8C115.275 9.608 115.219 9.472 115.155 9.392C115.107 9.296 115.003 9.24 114.843 9.224C114.683 9.192 114.411 9.176 114.027 9.176H111.291V16.16H115.707C116.091 16.16 116.363 16.152 116.523 16.136C116.683 16.104 116.787 16.048 116.835 15.968C116.899 15.872 116.955 15.728 117.003 15.536L117.771 12.872ZM135.064 17L131.128 3.896L127.408 17H125.32L121.984 2.696C121.904 2.328 121.84 2.072 121.792 1.928C121.744 1.768 121.672 1.664 121.576 1.616C121.496 1.568 121.368 1.536 121.192 1.52L119.872 1.352V0.68H126.52V1.352L125.2 1.52C124.944 1.552 124.808 1.616 124.792 1.712C124.776 1.808 124.824 2.136 124.936 2.696L127.432 13.88L131.104 0.68H133.096L137.008 13.64L139.552 2.696C139.68 2.136 139.728 1.808 139.696 1.712C139.664 1.616 139.528 1.552 139.288 1.52L137.968 1.352V0.68H142.624V1.352L141.304 1.52C141.128 1.536 141 1.568 140.92 1.616C140.84 1.664 140.768 1.768 140.704 1.928C140.656 2.072 140.592 2.328 140.512 2.696L137.176 17H135.064ZM149.116 16.4C150.076 16.4 150.868 16.176 151.492 15.728C152.132 15.264 152.452 14.544 152.452 13.568C152.452 12.848 152.236 12.248 151.804 11.768C151.388 11.288 150.636 10.888 149.548 10.568L147.316 9.896C146.196 9.56 145.332 8.984 144.724 8.168C144.132 7.336 143.836 6.304 143.836 5.072C143.836 4.256 144.02 3.496 144.388 2.792C144.772 2.088 145.348 1.52 146.116 1.088C146.9 0.655999 147.884 0.439999 149.068 0.439999C150.364 0.439999 151.412 0.679999 152.212 1.16C153.012 1.624 153.572 2.232 153.892 2.984C154.212 3.736 154.292 4.544 154.132 5.408L151.372 5.912C151.628 4.424 151.516 3.28 151.036 2.48C150.572 1.68 149.812 1.28 148.756 1.28C147.94 1.28 147.284 1.52 146.788 2C146.308 2.48 146.068 3.168 146.068 4.064C146.068 4.8 146.276 5.448 146.692 6.008C147.124 6.568 147.828 7 148.804 7.304L151.036 7.976C152.252 8.328 153.164 8.864 153.772 9.584C154.38 10.288 154.684 11.272 154.684 12.536C154.684 13.432 154.476 14.24 154.06 14.96C153.66 15.664 153.044 16.224 152.212 16.64C151.396 17.04 150.372 17.24 149.14 17.24C148.244 17.24 147.396 17.112 146.596 16.856C145.796 16.584 145.124 16.144 144.58 15.536C144.052 14.928 143.716 14.104 143.572 13.064L145.18 12.488C145.26 13.512 145.484 14.312 145.852 14.888C146.236 15.448 146.708 15.84 147.268 16.064C147.844 16.288 148.46 16.4 149.116 16.4Z" fill="#1F1F1F"/>
</svg>
